<svg width="183" height="61" viewBox="0 0 183 61" fill="none" xmlns="http://www.w3.org/2000/svg">
<path d="M15.601 50.8984C13.5255 50.8239 11.5055 50.2474 9.54109 49.1682C7.61377 48.1265 5.90883 46.6196 4.42628 44.6477C2.9808 42.6387 1.85033 40.183 1.03494 37.281C0.219532 34.3788 -0.114043 31.0303 0.0342128 27.2351C0.182468 23.4399 0.849618 20.0729 2.03566 17.1335C3.25878 14.1942 4.75986 11.7572 6.53893 9.8225C8.318 7.85062 10.2638 6.39951 12.3765 5.46941C14.5262 4.53931 16.6388 4.18569 18.7144 4.40905C19.9746 4.55788 21.0865 4.91125 22.0502 5.46941C23.0138 6.02756 23.8478 6.71574 24.5519 7.5344C25.2562 8.31567 25.8492 9.17148 26.3309 10.1016C26.813 10.9945 27.202 11.8689 27.4985 12.7245C27.721 12.9478 27.9618 13.0595 28.2213 13.0595C28.9255 13.0967 29.5556 12.5759 30.1116 11.4967C30.7046 10.3807 31.2049 8.55736 31.6126 6.02756L33.1694 6.19496C32.8357 7.45986 32.4652 8.92955 32.0574 10.6038C31.6869 12.2409 31.3346 13.9339 31.0011 15.6824C30.7046 17.4312 30.4451 19.1614 30.2228 20.8728C30.0373 22.5844 29.9818 24.1284 30.0558 25.5049C29.5001 25.2818 28.981 25.133 28.4993 25.0585C28.0175 24.947 27.5727 24.8725 27.165 24.8353C26.7202 24.7982 26.3124 24.7982 25.9419 24.8353C26.0159 22.5284 25.9419 20.3148 25.7194 18.1939C25.5342 16.0732 25.1636 14.2127 24.6076 12.613C24.0516 10.976 23.3103 9.6551 22.3837 8.65047C21.4942 7.64583 20.3823 7.08792 19.048 6.97624C17.8619 6.86456 16.5832 7.12506 15.2119 7.75751C13.8405 8.35282 12.5433 9.45032 11.3202 11.0503C10.0971 12.613 9.04075 14.7152 8.15121 17.3569C7.26168 19.9984 6.70571 23.2914 6.48333 27.2351C6.37215 29.3187 6.44625 31.5139 6.70571 33.8206C6.96517 36.1275 7.48404 38.2668 8.26239 40.2387C9.04075 42.1734 10.0971 43.7919 11.4314 45.0942C12.7657 46.3591 14.452 46.9732 16.4906 46.9358C18.0473 46.8244 19.4927 46.4151 20.827 45.7081C21.976 45.0756 23.1066 44.127 24.2184 42.8618C25.3304 41.5967 26.1272 39.7736 26.609 37.3924L28.4438 38.5087C28.1473 39.476 27.7025 40.6852 27.1095 42.1363C26.5164 43.5502 25.7009 44.9268 24.6631 46.2662C23.6623 47.6057 22.4023 48.7218 20.8826 49.6147C19.4001 50.545 17.6396 50.973 15.601 50.8984ZM60.8005 44.8151C60.6892 45.2988 60.504 45.8383 60.2445 46.4336C59.9849 46.9918 59.6144 47.494 59.1327 47.9405C58.6506 48.4241 58.0576 48.7777 57.3536 49.0008C56.6863 49.2613 55.8895 49.2799 54.9628 49.0568C54.0362 48.8334 53.2949 48.3127 52.7392 47.494C52.2202 46.6756 51.8496 45.6338 51.6271 44.3687C51.2936 44.8897 50.8674 45.4476 50.3483 46.0429C49.8666 46.601 49.2735 47.1035 48.5693 47.5497C47.9022 48.0336 47.124 48.4055 46.2344 48.666C45.3819 48.9637 44.4369 49.0754 43.3988 49.0008C41.9905 48.8894 40.7302 48.4986 39.6184 47.8288C38.5436 47.1963 37.6356 46.3779 36.8943 45.3733C36.1531 44.3315 35.597 43.1595 35.2263 41.8572C34.8928 40.5551 34.8 39.1969 34.9485 37.7832C35.0965 36.3692 35.4673 35.16 36.0603 34.1554C36.6903 33.151 37.4686 32.3509 38.3954 31.7556C39.3219 31.1232 40.3782 30.6953 41.5643 30.4721C42.7503 30.2488 43.9734 30.1931 45.2336 30.3047C46.9015 30.4907 48.2915 30.9929 49.4033 31.8116C50.5151 32.5928 51.3676 33.4672 51.9606 34.4345C52.1461 32.7231 52.2016 30.9 52.1274 28.9653C52.0534 26.9932 51.7569 25.2073 51.2379 23.6076C50.7191 21.9705 49.9221 20.6311 48.8473 19.5893C47.7725 18.5101 46.3084 17.9893 44.4554 18.0265C43.1581 18.0265 42.0833 18.2684 41.2307 18.7521C40.4152 19.1985 39.7482 19.7381 39.2292 20.3706C38.7474 21.003 38.4139 21.654 38.2286 22.3239C38.0431 22.9563 37.9506 23.4588 37.9506 23.8307C37.9506 24.2029 38.0616 24.6305 38.2841 25.1144C38.5066 25.5609 38.8216 25.9888 39.2292 26.3979C39.6369 26.7701 40.1187 27.0677 40.6747 27.2908C41.2307 27.5142 41.8608 27.5699 42.565 27.4585C43.0468 27.3839 43.4731 27.2165 43.8438 26.956C44.2144 26.6955 44.5109 26.3979 44.7334 26.0631C44.9556 25.7283 45.1039 25.3749 45.1779 25.0027C45.2892 24.6305 45.3449 24.2772 45.3449 23.9424C45.3449 23.5702 45.2336 23.254 45.0111 22.9937C44.7889 22.6961 44.5294 22.4727 44.2329 22.3239C43.9363 22.175 43.6028 22.1379 43.2321 22.2122C42.8616 22.2493 42.528 22.417 42.2315 22.7146C42.565 22.6772 42.8986 22.7518 43.2321 22.9377C43.5658 23.0866 43.7326 23.4214 43.7326 23.9424C43.7326 24.3517 43.5658 24.6679 43.2321 24.8911C42.8986 25.0773 42.528 25.1516 42.1203 25.1144C41.7125 25.0773 41.342 24.9096 41.0082 24.612C40.6747 24.2772 40.508 23.775 40.508 23.1051C40.508 22.4727 40.7675 21.9331 41.2863 21.4866C41.8423 21.0402 42.4723 20.817 43.1766 20.817C44.0291 20.817 44.8074 21.1518 45.5117 21.8217C46.2529 22.4913 46.6234 23.4214 46.6234 24.612C46.6234 25.0213 46.5124 25.4678 46.2899 25.9514C46.1047 26.3979 45.8082 26.8258 45.4004 27.2351C44.9926 27.6445 44.4554 27.9978 43.7881 28.2955C43.1211 28.556 42.3425 28.6862 41.453 28.6862C40.5635 28.6862 39.7667 28.5188 39.0624 28.1838C38.3581 27.8118 37.7651 27.3654 37.2834 26.8444C36.8016 26.2864 36.4311 25.6911 36.1716 25.0585C35.9491 24.3889 35.838 23.7564 35.838 23.1611C35.838 22.5658 36.0233 21.8217 36.3938 20.9287C36.7646 19.9984 37.3391 19.1242 38.1174 18.3056C38.9327 17.4869 39.9334 16.7802 41.1195 16.1849C42.3425 15.5896 43.7881 15.2919 45.4559 15.2919C49.9408 15.2919 53.0357 16.873 54.7405 20.0358C56.4453 23.1611 56.7233 27.8304 55.5745 34.044C55.1298 36.5366 54.8888 38.5645 54.8517 40.1272C54.8147 41.6898 54.9073 42.9364 55.1298 43.8665C55.352 44.7966 55.667 45.4476 56.0748 45.8198C56.5196 46.1917 56.9828 46.4151 57.4646 46.4894C57.8724 46.5639 58.2616 46.5268 58.6321 46.3779C58.9287 46.3034 59.2067 46.136 59.4662 45.8755C59.7627 45.5778 59.9664 45.1314 60.0777 44.5361L60.8005 44.8151ZM51.4046 41.9689C51.3676 40.6294 51.4234 39.2155 51.5716 37.7272C51.2751 36.574 50.6636 35.5136 49.7368 34.5462C48.8473 33.5415 47.828 32.9462 46.6792 32.7602C45.8267 32.6114 44.9371 32.63 44.0106 32.8162C43.1211 32.9648 42.324 33.2998 41.6198 33.8206C40.9157 34.3045 40.3597 34.9926 39.952 35.8856C39.5442 36.7785 39.3962 37.8763 39.5072 39.1783C39.6927 41.1876 40.2485 42.713 41.1752 43.7548C42.1388 44.7966 43.5473 45.2616 45.4004 45.1499C46.8089 45.0756 47.995 44.7223 48.9585 44.0896C49.9593 43.42 50.7746 42.713 51.4046 41.9689ZM74.0322 45.0385C74.8847 45.0385 75.6815 44.7408 76.4228 44.1455C77.1641 43.5502 77.6831 42.5456 77.9796 41.1316L79.1472 41.5781C79.0359 42.4711 78.6836 43.3826 78.0906 44.3129C77.4976 45.2059 76.7378 45.9686 75.8113 46.601C74.8847 47.2335 73.8285 47.6428 72.6424 47.8288C71.4934 48.015 70.3073 47.8288 69.0843 47.2709C67.75 46.6382 66.7862 45.8198 66.1932 44.8151C65.6002 43.8105 65.2296 42.6573 65.0814 41.355C64.9331 40.0156 64.9146 38.583 65.0256 37.0576C65.1369 35.4951 65.1926 33.8766 65.1926 32.2021C65.1926 31.2348 65.1739 30.1 65.1369 28.7977C65.1369 27.4585 65.0999 26.0445 65.0256 24.5563C64.9886 23.068 64.9146 21.5426 64.8034 19.9798C64.6921 18.3799 64.5809 16.8173 64.4699 15.2919C63.2096 15.4407 62.005 15.6267 60.856 15.8501C59.7442 16.036 58.7989 16.2777 58.0206 16.5754C57.9836 16.2406 57.9836 15.9801 58.0206 15.7941C58.0206 15.6081 58.0391 15.4407 58.0764 15.2919C58.0764 15.1057 58.0764 14.9197 58.0764 14.7338C58.0764 14.5104 58.0391 14.2127 57.9651 13.8408C58.8546 13.7665 59.8367 13.692 60.9117 13.6174C62.0235 13.5431 63.1541 13.4689 64.3031 13.3943C64.2659 12.8736 64.2288 12.3711 64.1918 11.8875C64.1546 11.3665 64.0991 10.8643 64.0251 10.3807C63.8396 8.6319 63.4876 7.23674 62.9686 6.19496C62.4868 5.15318 61.9495 4.3531 61.3565 3.79494C60.7635 3.23702 60.2074 2.86484 59.6884 2.67886C59.1697 2.45574 58.7804 2.30668 58.5209 2.23239L58.6879 1.17203C59.3919 1.46968 60.263 1.67423 61.3007 1.78591C62.3385 1.86044 63.4136 1.86044 64.5254 1.78591C65.6744 1.67423 66.7862 1.48826 67.8612 1.22775C68.973 0.967487 69.9368 0.632451 70.7521 0.223121C70.3813 1.26514 70.0478 2.9208 69.7513 5.19033C69.4918 7.45986 69.2695 10.1016 69.0843 13.1152C71.0116 13.0036 72.4014 12.8547 73.2539 12.6688C73.0687 12.8921 72.9759 13.2641 72.9759 13.7851C72.9759 14.2687 73.0314 14.7152 73.1427 15.1245C72.5127 15.05 71.8454 15.0128 71.1414 15.0128C70.4371 14.9757 69.7143 14.9571 68.973 14.9571C68.8618 17.115 68.7878 19.3659 68.7508 21.71C68.7135 24.0541 68.732 26.3793 68.8063 28.6862C68.9175 30.9558 69.0658 33.1882 69.251 35.3834C69.4733 37.5412 69.7513 39.5319 70.0848 41.355C70.3813 42.6573 70.9003 43.5874 71.6416 44.1455C72.3829 44.7035 73.1797 45.0011 74.0322 45.0385ZM126.848 10.7155C126.07 11.2362 125.31 11.813 124.569 12.4456C123.828 13.0781 123.179 13.8965 122.623 14.9012C122.067 15.9058 121.641 17.1707 121.344 18.6963C121.048 20.1846 120.974 22.0819 121.122 24.3889C121.196 25.9143 121.27 27.5699 121.344 29.3558C121.455 31.1046 121.474 32.8719 121.4 34.6578C121.326 36.4437 121.122 38.1739 120.788 39.8482C120.455 41.4852 119.899 42.9549 119.12 44.257C118.342 45.5593 117.304 46.6196 116.007 47.4383C114.71 48.2567 113.079 48.7032 111.115 48.7777C109.669 48.852 108.39 48.6475 107.278 48.1638C106.204 47.68 105.259 47.029 104.443 46.2105C103.665 45.3547 103.016 44.3872 102.497 43.3083C101.979 42.192 101.552 41.0388 101.218 39.8482C100.663 41.3736 99.9954 42.7873 99.2172 44.0896C98.4759 45.3919 97.4936 46.4336 96.2705 47.2149C95.0845 48.0336 93.6389 48.4986 91.9341 48.6103C90.2663 48.7591 88.2462 48.4241 85.8742 47.6057C84.1321 47.0104 82.7608 46.1546 81.76 45.0385C80.7592 43.885 80.0182 42.6013 79.5362 41.1876C79.0544 39.7365 78.7764 38.2297 78.7024 36.6669C78.6281 35.0672 78.6466 33.5415 78.7579 32.0907C78.8691 30.6024 79.0359 29.2444 79.2582 28.0164C79.4807 26.7886 79.6474 25.8026 79.7587 25.0585C80.1292 22.6772 80.4257 20.4263 80.6482 18.3056C80.9077 16.1477 80.9447 14.2316 80.7592 12.5571C80.574 10.8457 80.0922 9.43175 79.3139 8.31567C78.5726 7.16221 77.3866 6.39951 75.7558 6.02756L76.0338 4.91125C76.7378 5.02293 77.5718 5.15318 78.5356 5.30201C79.4992 5.45083 80.5 5.58085 81.5377 5.69253C82.5755 5.76706 83.5948 5.80421 84.5954 5.80421C85.6331 5.76706 86.5599 5.65538 87.3752 5.46941C87.19 6.92052 86.9304 8.725 86.5969 10.8829C86.3004 13.0036 86.0039 15.2733 85.7074 17.6917C85.4109 20.1101 85.1329 22.5844 84.8734 25.1144C84.6511 27.6071 84.5214 29.9511 84.4844 32.1464C84.3731 36.574 84.8734 39.8108 85.9854 41.8572C87.1344 43.9036 89.1358 44.9082 91.9896 44.8709C93.4352 44.8337 94.6027 44.2013 95.4923 42.9735C96.3818 41.7458 97.0673 40.2201 97.5493 38.3971C98.0681 36.574 98.4204 34.6393 98.6056 32.5928C98.7909 30.5093 98.9206 28.6117 98.9949 26.9003C99.0319 25.1887 99.0319 23.533 98.9949 21.9331C98.9576 20.296 98.8464 18.7892 98.6611 17.4126C98.4759 16.036 98.2164 14.808 97.8829 13.7291C97.5863 12.613 97.2158 11.7201 96.7708 11.0503C97.8088 11.0131 98.6984 11.0317 99.4394 11.1062C100.181 11.1805 100.866 11.2736 101.496 11.3853C102.164 11.4596 102.85 11.5153 103.554 11.5527C104.258 11.5898 105.092 11.5153 106.055 11.3293C105.648 12.4828 105.277 13.6734 104.944 14.9012C104.61 16.1289 104.313 17.4683 104.054 18.9194C103.832 20.3706 103.646 21.9891 103.498 23.775C103.387 25.5235 103.331 27.5142 103.331 29.7466C103.368 31.979 103.48 34.0068 103.665 35.8299C103.887 37.6529 104.258 39.1969 104.777 40.462C105.333 41.6898 106.074 42.6013 107.001 43.1966C107.964 43.7548 109.206 43.885 110.726 43.5874C112.245 43.2526 113.431 42.4896 114.284 41.299C115.136 40.1084 115.748 38.639 116.118 36.8902C116.526 35.1415 116.748 33.1882 116.786 31.0303C116.86 28.8351 116.86 26.6027 116.786 24.3329C116.711 22.0262 116.582 20.0729 116.396 18.473C116.211 16.8359 115.915 15.4965 115.507 14.4547C115.136 13.4129 114.654 12.6316 114.061 12.1106C113.468 11.5527 112.745 11.1991 111.893 11.0503L112.06 9.8225C114.321 10.1947 116.656 10.3247 119.065 10.2133C121.474 10.0644 123.994 9.63653 126.626 8.92955L126.848 10.7155ZM126.848 46.601C127.701 46.3034 128.405 45.9129 128.961 45.429C129.517 44.9454 129.943 44.4618 130.24 43.9779C130.61 43.42 130.851 42.8433 130.962 42.248C131.778 38.4528 132.185 34.8438 132.185 31.4208C132.185 27.9607 131.926 25.0027 131.407 22.547C131.259 21.7657 130.981 21.0402 130.573 20.3706C130.24 19.8124 129.776 19.2916 129.183 18.8078C128.59 18.287 127.83 17.9522 126.904 17.8034L126.848 16.9104C127.589 16.9847 128.275 17.0407 128.905 17.0778C129.573 17.0778 130.147 17.0778 130.629 17.0778H132.185C132.63 17.115 133.075 17.1335 133.52 17.1335C133.927 17.1707 134.335 17.1893 134.743 17.1893C135.188 17.1893 135.614 17.2266 136.022 17.3009C135.91 18.6404 135.818 20.0172 135.744 21.4309C135.67 22.8075 135.614 24.0541 135.577 25.1701C135.503 26.4724 135.466 27.7373 135.466 28.9653C135.391 30.3419 135.336 31.8487 135.299 33.4858C135.262 35.0857 135.28 36.6111 135.354 38.0623C135.429 39.5131 135.558 40.7968 135.744 41.9132C135.929 42.9921 136.226 43.6991 136.633 44.0339C136.856 44.1827 137.152 44.3315 137.523 44.4803C137.819 44.6292 138.208 44.778 138.69 44.9268C139.209 45.0756 139.839 45.2245 140.58 45.3733L140.636 46.322C139.895 46.2848 139.172 46.2848 138.468 46.322C137.801 46.322 137.208 46.322 136.689 46.322C136.059 46.3591 135.466 46.3779 134.91 46.3779C134.131 46.4151 133.297 46.4894 132.408 46.601C131.667 46.6756 130.833 46.7684 129.906 46.8801C128.98 46.9918 128.09 47.1221 127.237 47.2709L126.848 46.601ZM132.575 13.1712C131.426 13.2455 130.536 12.985 129.906 12.3897C129.276 11.7572 128.924 11.0503 128.85 10.269C128.776 9.4877 128.98 8.76215 129.461 8.09231C129.98 7.38557 130.796 6.95766 131.908 6.80884C133.056 6.66001 133.964 6.90171 134.632 7.5344C135.336 8.16685 135.744 8.8924 135.855 9.71082C135.966 10.4923 135.762 11.255 135.243 11.9992C134.724 12.7059 133.835 13.0967 132.575 13.1712ZM168.378 61C167.081 61 165.802 60.7955 164.542 60.3861C163.282 59.9768 162.189 59.2884 161.262 58.3211C160.335 57.391 159.65 56.1259 159.205 54.526C158.76 52.9634 158.705 51.0101 159.038 48.666C159.298 46.8801 159.502 45.1314 159.65 43.42C159.835 41.6712 159.891 40.0713 159.817 38.6202C159.742 37.1319 159.483 35.8299 159.038 34.7136C158.594 33.5601 157.871 32.6671 156.87 32.0347C155.944 31.4022 154.739 31.0303 153.256 30.9186C151.774 30.8069 149.976 31.0674 147.863 31.6999C147.938 33.2998 148.03 34.8067 148.141 36.2204C148.29 37.6344 148.456 38.8993 148.642 40.0156C148.753 41.1316 148.957 42.0991 149.253 42.9175C149.476 43.6245 149.791 44.257 150.199 44.8151C150.606 45.3733 151.125 45.5778 151.755 45.429L151.366 46.8244C150.625 46.5639 149.772 46.3779 148.809 46.2662C147.882 46.1546 146.881 46.136 145.806 46.2105C144.732 46.2848 143.62 46.4522 142.471 46.7127C141.359 46.9732 140.284 47.3638 139.246 47.8848L138.968 46.9358C139.524 46.5268 140.024 46.1546 140.469 45.8198C140.914 45.485 141.303 45.0571 141.637 44.5361C142.007 44.0153 142.322 43.3455 142.582 42.527C142.841 41.7084 143.064 40.6109 143.249 39.2343C143.434 37.8575 143.657 36.0716 143.916 33.8766C144.213 31.6442 144.472 29.2444 144.695 26.677C144.917 24.1098 145.065 21.4681 145.139 18.7521C145.213 16.036 145.139 13.506 144.917 11.1619C144.695 9.41317 144.361 7.83204 143.916 6.41808C143.731 5.82278 143.49 5.24605 143.194 4.68789C142.934 4.09259 142.619 3.57182 142.248 3.12534C141.878 2.64172 141.451 2.25096 140.97 1.95331C140.525 1.65566 140.024 1.48826 139.468 1.45111V0.613877C140.173 0.725556 140.97 0.855807 141.859 1.00463C142.786 1.11607 143.824 1.19061 144.973 1.22775C146.159 1.26514 147.474 1.20918 148.92 1.06035C150.402 0.874382 152.052 0.520771 153.868 0V1.11608C153.201 1.48826 152.589 1.87902 152.033 2.28811C151.477 2.66029 150.958 3.19964 150.477 3.90662C150.032 4.6136 149.643 5.5437 149.309 6.69716C148.975 7.85062 148.734 9.37602 148.586 11.2736C148.401 13.0595 148.197 15.1245 147.975 17.4683C147.789 19.8124 147.697 22.2308 147.697 24.7237C147.697 25.6166 147.697 26.5281 147.697 27.4585C147.697 28.3514 147.734 29.2444 147.808 30.1373C149.587 29.5047 151.181 28.6862 152.589 27.6816C153.997 26.6398 155.183 25.5795 156.147 24.5005C157.111 23.3842 157.852 22.3053 158.371 21.2635C158.89 20.2217 159.149 19.3288 159.149 18.5847C159.075 18.0265 158.946 17.5243 158.76 17.0778C158.575 16.7056 158.297 16.3708 157.926 16.0732C157.556 15.7384 157.055 15.5524 156.425 15.515L156.592 14.1199C158.89 14.4175 161.095 14.5478 163.208 14.5104C165.321 14.4361 167.433 13.9339 169.546 13.0036L169.768 14.1199C169.212 14.3804 168.712 14.6406 168.267 14.9012C167.822 15.1245 167.396 15.4034 166.988 15.7384C166.618 16.0732 166.247 16.5197 165.877 17.0778C165.506 17.5986 165.098 18.287 164.653 19.1428C164.32 19.8496 163.875 20.6682 163.319 21.5983C162.763 22.5284 162.096 23.4588 161.318 24.3889C160.576 25.2818 159.705 26.1376 158.705 26.956C157.741 27.7373 156.685 28.37 155.536 28.8536C158.501 28.7791 160.817 29.5606 162.485 31.1977C164.153 32.7974 165.098 35.4577 165.321 39.1783C165.395 41.0759 165.228 42.9921 164.82 44.9268C164.413 46.8244 164.06 48.6103 163.764 50.2845C163.467 51.9959 163.356 53.5216 163.43 54.861C163.505 56.2376 164.06 57.3165 165.098 58.0978C166.099 58.8793 167.081 59.3443 168.045 59.4932C169.045 59.6791 169.972 59.6048 170.825 59.2698C171.677 58.9722 172.418 58.4514 173.048 57.7073C173.716 56.9631 174.234 56.0888 174.605 55.0841C174.939 54.0795 175.087 53.2051 175.05 52.4612C175.013 51.7542 174.846 51.1589 174.549 50.6753C174.253 50.2286 173.864 49.8938 173.382 49.6707C172.937 49.4473 172.455 49.3356 171.937 49.3356C170.899 49.3356 169.972 49.7264 169.157 50.5077C168.341 51.2892 167.896 52.3121 167.822 53.5773C167.785 54.0238 167.841 54.3957 167.989 54.6934C168.137 54.991 168.323 55.2144 168.545 55.3632C168.804 55.5492 169.064 55.6794 169.324 55.754C169.62 55.8282 169.898 55.8282 170.158 55.754C170.639 55.6794 171.121 55.4003 171.603 54.9167C172.122 54.4331 172.363 53.8564 172.326 53.1865C172.103 53.3354 171.825 53.4656 171.492 53.5773C171.158 53.7261 170.843 53.8004 170.547 53.8004C170.287 53.8004 170.046 53.7075 169.824 53.5216C169.639 53.3727 169.546 53.0751 169.546 52.6286C169.546 52.1076 169.731 51.6983 170.102 51.4006C170.51 51.1404 170.954 51.0101 171.436 51.0101C171.918 51.0101 172.363 51.1589 172.77 51.4566C173.178 51.7914 173.382 52.275 173.382 52.9075C173.419 54.1354 173.011 55.1587 172.159 55.9771C171.344 56.8329 170.38 57.2608 169.268 57.2608C168.452 57.2608 167.804 57.0189 167.322 56.5352C166.877 56.0887 166.562 55.512 166.377 54.805C166.229 54.1354 166.229 53.3913 166.377 52.5726C166.562 51.7542 166.896 50.9915 167.378 50.2845C167.859 49.6147 168.489 49.038 169.268 48.5544C170.083 48.1079 171.047 47.8848 172.159 47.8848C172.937 47.8848 173.586 48.0336 174.105 48.3312C174.624 48.6289 175.031 49.0008 175.328 49.4473C175.661 49.9309 175.902 50.4519 176.051 51.0101C176.199 51.5683 176.273 52.1262 176.273 52.6843C176.31 53.7633 176.162 54.7865 175.828 55.754C175.495 56.7583 174.994 57.6513 174.327 58.4328C173.66 59.2141 172.826 59.828 171.825 60.2744C170.825 60.7581 169.676 61 168.378 61ZM169.212 46.601C170.065 46.3034 170.769 45.9129 171.325 45.429C171.881 44.9454 172.307 44.4618 172.604 43.9779C172.974 43.42 173.215 42.8433 173.326 42.248C174.142 38.4528 174.549 34.8438 174.549 31.4208C174.549 27.9607 174.29 25.0027 173.771 22.547C173.623 21.7657 173.345 21.0402 172.937 20.3706C172.604 19.8124 172.14 19.2916 171.547 18.8078C170.954 18.287 170.195 17.9522 169.268 17.8034L169.212 16.9104C169.954 16.9847 170.639 17.0407 171.269 17.0778C171.937 17.0778 172.511 17.0778 172.993 17.0778H174.549C174.994 17.115 175.439 17.1335 175.884 17.1335C176.291 17.1707 176.699 17.1893 177.107 17.1893C177.552 17.1893 177.978 17.2266 178.386 17.3009C178.274 18.6404 178.182 20.0172 178.108 21.4309C178.034 22.8075 177.978 24.0541 177.941 25.1701C177.867 26.4724 177.83 27.7373 177.83 28.9653C177.756 30.3419 177.7 31.8487 177.663 33.4858C177.626 35.0857 177.644 36.6111 177.718 38.0623C177.793 39.5131 177.922 40.7968 178.108 41.9132C178.293 42.9921 178.589 43.6991 178.997 44.0339C179.22 44.1827 179.516 44.3315 179.887 44.4803C180.183 44.6292 180.572 44.778 181.054 44.9268C181.573 45.0756 182.203 45.2245 182.944 45.3733L183 46.322C182.259 46.2848 181.536 46.2848 180.832 46.322C180.165 46.322 179.572 46.322 179.053 46.322C178.423 46.3591 177.83 46.3779 177.274 46.3779C176.495 46.4151 175.661 46.4894 174.772 46.601C174.031 46.6756 173.197 46.7684 172.27 46.8801C171.344 46.9918 170.454 47.1221 169.602 47.2709L169.212 46.601ZM174.939 13.1712C173.79 13.2455 172.9 12.985 172.27 12.3897C171.64 11.7572 171.288 11.0503 171.214 10.269C171.14 9.4877 171.344 8.76215 171.825 8.09231C172.344 7.38557 173.16 6.95766 174.271 6.80884C175.42 6.66001 176.329 6.90171 176.996 7.5344C177.7 8.16685 178.108 8.8924 178.219 9.71082C178.33 10.4923 178.126 11.255 177.607 11.9992C177.088 12.7059 176.199 13.0967 174.939 13.1712Z" fill="white"/>
</svg>
