<svg width="273" height="69" viewBox="0 0 273 69" fill="none" xmlns="http://www.w3.org/2000/svg">
<path d="M15.601 58.8984C13.5255 58.8239 11.5055 58.2474 9.54109 57.1682C7.61377 56.1265 5.90883 54.6196 4.42628 52.6477C2.9808 50.6387 1.85033 48.183 1.03494 45.281C0.219532 42.3788 -0.114043 39.0303 0.0342128 35.2351C0.182468 31.4399 0.849618 28.0729 2.03566 25.1335C3.25878 22.1942 4.75986 19.7572 6.53893 17.8225C8.318 15.8506 10.2638 14.3995 12.3765 13.4694C14.5262 12.5393 16.6388 12.1857 18.7144 12.4091C19.9746 12.5579 21.0865 12.9113 22.0502 13.4694C23.0138 14.0276 23.8478 14.7157 24.5519 15.5344C25.2562 16.3157 25.8492 17.1715 26.3309 18.1016C26.813 18.9945 27.202 19.8689 27.4985 20.7245C27.721 20.9478 27.9618 21.0595 28.2213 21.0595C28.9255 21.0967 29.5556 20.5759 30.1116 19.4967C30.7046 18.3807 31.2049 16.5574 31.6126 14.0276L33.1694 14.195C32.8357 15.4599 32.4652 16.9295 32.0574 18.6038C31.6869 20.2409 31.3346 21.9339 31.0011 23.6824C30.7046 25.4312 30.4451 27.1614 30.2228 28.8728C30.0373 30.5844 29.9818 32.1284 30.0558 33.5049C29.5001 33.2818 28.981 33.133 28.4993 33.0585C28.0175 32.947 27.5727 32.8725 27.165 32.8353C26.7202 32.7982 26.3124 32.7982 25.9419 32.8353C26.0159 30.5284 25.9419 28.3148 25.7194 26.1939C25.5342 24.0732 25.1636 22.2127 24.6076 20.613C24.0516 18.976 23.3103 17.6551 22.3837 16.6505C21.4942 15.6458 20.3823 15.0879 19.048 14.9762C17.8619 14.8646 16.5832 15.1251 15.2119 15.7575C13.8405 16.3528 12.5433 17.4503 11.3202 19.0503C10.0971 20.613 9.04075 22.7152 8.15121 25.3569C7.26168 27.9984 6.70571 31.2914 6.48333 35.2351C6.37215 37.3187 6.44625 39.5139 6.70571 41.8206C6.96517 44.1275 7.48404 46.2668 8.26239 48.2387C9.04075 50.1734 10.0971 51.7919 11.4314 53.0942C12.7657 54.3591 14.452 54.9732 16.4906 54.9358C18.0473 54.8244 19.4927 54.4151 20.827 53.7081C21.976 53.0756 23.1066 52.127 24.2184 50.8618C25.3304 49.5967 26.1272 47.7736 26.609 45.3924L28.4438 46.5087C28.1473 47.476 27.7025 48.6852 27.1095 50.1363C26.5164 51.5502 25.7009 52.9268 24.6631 54.2662C23.6623 55.6057 22.4023 56.7218 20.8826 57.6147C19.4001 58.545 17.6396 58.973 15.601 58.8984ZM60.8005 52.8151C60.6892 53.2988 60.504 53.8383 60.2445 54.4336C59.9849 54.9918 59.6144 55.494 59.1327 55.9405C58.6506 56.4241 58.0576 56.7777 57.3536 57.0008C56.6863 57.2613 55.8895 57.2799 54.9628 57.0568C54.0362 56.8334 53.2949 56.3127 52.7392 55.494C52.2202 54.6756 51.8496 53.6338 51.6271 52.3687C51.2936 52.8897 50.8674 53.4476 50.3483 54.0429C49.8666 54.601 49.2735 55.1035 48.5693 55.5497C47.9022 56.0336 47.124 56.4055 46.2344 56.666C45.3819 56.9637 44.4369 57.0754 43.3988 57.0008C41.9905 56.8894 40.7302 56.4986 39.6184 55.8288C38.5436 55.1963 37.6356 54.3779 36.8943 53.3733C36.1531 52.3315 35.597 51.1595 35.2263 49.8572C34.8928 48.5551 34.8 47.1969 34.9485 45.7832C35.0965 44.3692 35.4673 43.16 36.0603 42.1554C36.6903 41.151 37.4686 40.3509 38.3954 39.7556C39.3219 39.1232 40.3782 38.6953 41.5643 38.4721C42.7503 38.2488 43.9734 38.1931 45.2336 38.3047C46.9015 38.4907 48.2915 38.9929 49.4033 39.8116C50.5151 40.5928 51.3676 41.4672 51.9606 42.4345C52.1461 40.7231 52.2016 38.9 52.1274 36.9653C52.0534 34.9932 51.7569 33.2073 51.2379 31.6076C50.7191 29.9705 49.9221 28.6311 48.8473 27.5893C47.7725 26.5101 46.3084 25.9893 44.4554 26.0265C43.1581 26.0265 42.0833 26.2684 41.2307 26.7521C40.4152 27.1985 39.7482 27.7381 39.2292 28.3706C38.7474 29.003 38.4139 29.654 38.2286 30.3239C38.0431 30.9563 37.9506 31.4588 37.9506 31.8307C37.9506 32.2029 38.0616 32.6305 38.2841 33.1144C38.5066 33.5609 38.8216 33.9888 39.2292 34.3979C39.6369 34.7701 40.1187 35.0677 40.6747 35.2908C41.2307 35.5142 41.8608 35.5699 42.565 35.4585C43.0468 35.3839 43.4731 35.2165 43.8438 34.956C44.2144 34.6955 44.5109 34.3979 44.7334 34.0631C44.9556 33.7283 45.1039 33.3749 45.1779 33.0027C45.2892 32.6305 45.3449 32.2772 45.3449 31.9424C45.3449 31.5702 45.2336 31.254 45.0111 30.9937C44.7889 30.6961 44.5294 30.4727 44.2329 30.3239C43.9363 30.175 43.6028 30.1379 43.2321 30.2122C42.8616 30.2493 42.528 30.417 42.2315 30.7146C42.565 30.6772 42.8986 30.7518 43.2321 30.9377C43.5658 31.0866 43.7326 31.4214 43.7326 31.9424C43.7326 32.3517 43.5658 32.6679 43.2321 32.8911C42.8986 33.0773 42.528 33.1516 42.1203 33.1144C41.7125 33.0773 41.342 32.9096 41.0082 32.612C40.6747 32.2772 40.508 31.775 40.508 31.1051C40.508 30.4727 40.7675 29.9331 41.2863 29.4866C41.8423 29.0402 42.4723 28.817 43.1766 28.817C44.0291 28.817 44.8074 29.1518 45.5117 29.8217C46.2529 30.4913 46.6234 31.4214 46.6234 32.612C46.6234 33.0213 46.5124 33.4678 46.2899 33.9514C46.1047 34.3979 45.8082 34.8258 45.4004 35.2351C44.9926 35.6445 44.4554 35.9978 43.7881 36.2955C43.1211 36.556 42.3425 36.6862 41.453 36.6862C40.5635 36.6862 39.7667 36.5188 39.0624 36.1838C38.3581 35.8118 37.7651 35.3654 37.2834 34.8444C36.8016 34.2864 36.4311 33.6911 36.1716 33.0585C35.9491 32.3889 35.838 31.7564 35.838 31.1611C35.838 30.5658 36.0233 29.8217 36.3938 28.9287C36.7646 27.9984 37.3391 27.1242 38.1174 26.3056C38.9327 25.4869 39.9334 24.7802 41.1195 24.1849C42.3425 23.5896 43.7881 23.2919 45.4559 23.2919C49.9408 23.2919 53.0357 24.873 54.7405 28.0358C56.4453 31.1611 56.7233 35.8304 55.5745 42.044C55.1298 44.5366 54.8888 46.5645 54.8517 48.1272C54.8147 49.6898 54.9073 50.9364 55.1298 51.8665C55.352 52.7966 55.667 53.4476 56.0748 53.8198C56.5196 54.1917 56.9828 54.4151 57.4646 54.4894C57.8724 54.5639 58.2616 54.5268 58.6321 54.3779C58.9287 54.3034 59.2067 54.136 59.4662 53.8755C59.7627 53.5778 59.9664 53.1314 60.0777 52.5361L60.8005 52.8151ZM51.4046 49.9689C51.3676 48.6294 51.4234 47.2155 51.5716 45.7272C51.2751 44.574 50.6636 43.5136 49.7368 42.5462C48.8473 41.5415 47.828 40.9462 46.6792 40.7602C45.8267 40.6114 44.9371 40.63 44.0106 40.8162C43.1211 40.9648 42.324 41.2998 41.6198 41.8206C40.9157 42.3045 40.3597 42.9926 39.952 43.8856C39.5442 44.7785 39.3962 45.8763 39.5072 47.1783C39.6927 49.1876 40.2485 50.713 41.1752 51.7548C42.1388 52.7966 43.5473 53.2616 45.4004 53.1499C46.8089 53.0756 47.995 52.7223 48.9585 52.0896C49.9593 51.42 50.7746 50.713 51.4046 49.9689ZM74.0322 53.0385C74.8847 53.0385 75.6815 52.7408 76.4228 52.1455C77.1641 51.5502 77.6831 50.5456 77.9796 49.1316L79.1472 49.5781C79.0359 50.4711 78.6836 51.3826 78.0906 52.3129C77.4976 53.2059 76.7378 53.9686 75.8113 54.601C74.8847 55.2335 73.8285 55.6428 72.6424 55.8288C71.4934 56.015 70.3073 55.8288 69.0843 55.2709C67.75 54.6382 66.7862 53.8198 66.1932 52.8151C65.6002 51.8105 65.2296 50.6573 65.0814 49.355C64.9331 48.0156 64.9146 46.583 65.0256 45.0576C65.1369 43.4951 65.1926 41.8766 65.1926 40.2021C65.1926 39.2348 65.1739 38.1 65.1369 36.7977C65.1369 35.4585 65.0999 34.0445 65.0256 32.5563C64.9886 31.068 64.9146 29.5426 64.8034 27.9798C64.6921 26.3799 64.5809 24.8173 64.4699 23.2919C63.2096 23.4407 62.005 23.6267 60.856 23.8501C59.7442 24.036 58.7989 24.2777 58.0206 24.5754C57.9836 24.2406 57.9836 23.9801 58.0206 23.7941C58.0206 23.6081 58.0391 23.4407 58.0764 23.2919C58.0764 23.1057 58.0764 22.9197 58.0764 22.7338C58.0764 22.5104 58.0391 22.2127 57.9651 21.8408C58.8546 21.7665 59.8367 21.692 60.9117 21.6174C62.0235 21.5431 63.1541 21.4689 64.3031 21.3943C64.2659 20.8736 64.2288 20.3711 64.1918 19.8875C64.1546 19.3665 64.0991 18.8643 64.0251 18.3807C63.8396 16.6319 63.4876 15.2367 62.9686 14.195C62.4868 13.1532 61.9495 12.3531 61.3565 11.7949C60.7635 11.237 60.2074 10.8648 59.6884 10.6789C59.1697 10.4557 58.7804 10.3067 58.5209 10.2324L58.6879 9.17203C59.3919 9.46968 60.263 9.67423 61.3007 9.78591C62.3385 9.86044 63.4136 9.86044 64.5254 9.78591C65.6744 9.67423 66.7862 9.48826 67.8612 9.22775C68.973 8.96749 69.9368 8.63245 70.7521 8.22312C70.3813 9.26514 70.0478 10.9208 69.7513 13.1903C69.4918 15.4599 69.2695 18.1016 69.0843 21.1152C71.0116 21.0036 72.4014 20.8547 73.2539 20.6688C73.0687 20.8921 72.9759 21.2641 72.9759 21.7851C72.9759 22.2687 73.0314 22.7152 73.1427 23.1245C72.5127 23.05 71.8454 23.0128 71.1414 23.0128C70.4371 22.9757 69.7143 22.9571 68.973 22.9571C68.8618 25.115 68.7878 27.3659 68.7508 29.71C68.7135 32.0541 68.732 34.3793 68.8063 36.6862C68.9175 38.9558 69.0658 41.1882 69.251 43.3834C69.4733 45.5412 69.7513 47.5319 70.0848 49.355C70.3813 50.6573 70.9003 51.5874 71.6416 52.1455C72.3829 52.7035 73.1797 53.0011 74.0322 53.0385ZM126.848 18.7155C126.07 19.2362 125.31 19.813 124.569 20.4456C123.828 21.0781 123.179 21.8965 122.623 22.9012C122.067 23.9058 121.641 25.1707 121.344 26.6963C121.048 28.1846 120.974 30.0819 121.122 32.3889C121.196 33.9143 121.27 35.5699 121.344 37.3558C121.455 39.1046 121.474 40.8719 121.4 42.6578C121.326 44.4437 121.122 46.1739 120.788 47.8482C120.455 49.4852 119.899 50.9549 119.12 52.257C118.342 53.5593 117.304 54.6196 116.007 55.4383C114.71 56.2567 113.079 56.7032 111.115 56.7777C109.669 56.852 108.39 56.6475 107.278 56.1638C106.204 55.68 105.259 55.029 104.443 54.2105C103.665 53.3547 103.016 52.3872 102.497 51.3083C101.979 50.192 101.552 49.0388 101.218 47.8482C100.663 49.3736 99.9954 50.7873 99.2172 52.0896C98.4759 53.3919 97.4936 54.4336 96.2705 55.2149C95.0845 56.0336 93.6389 56.4986 91.9341 56.6103C90.2663 56.7591 88.2462 56.4241 85.8742 55.6057C84.1321 55.0104 82.7608 54.1546 81.76 53.0385C80.7592 51.885 80.0182 50.6013 79.5362 49.1876C79.0544 47.7365 78.7764 46.2297 78.7024 44.6669C78.6281 43.0672 78.6466 41.5415 78.7579 40.0907C78.8691 38.6024 79.0359 37.2444 79.2582 36.0164C79.4807 34.7886 79.6474 33.8026 79.7587 33.0585C80.1292 30.6772 80.4257 28.4263 80.6482 26.3056C80.9077 24.1477 80.9447 22.2316 80.7592 20.5571C80.574 18.8457 80.0922 17.4317 79.3139 16.3157C78.5726 15.1622 77.3866 14.3995 75.7558 14.0276L76.0338 12.9113C76.7378 13.0229 77.5718 13.1532 78.5356 13.302C79.4992 13.4508 80.5 13.5808 81.5377 13.6925C82.5755 13.7671 83.5948 13.8042 84.5954 13.8042C85.6331 13.7671 86.5599 13.6554 87.3752 13.4694C87.19 14.9205 86.9304 16.725 86.5969 18.8829C86.3004 21.0036 86.0039 23.2733 85.7074 25.6917C85.4109 28.1101 85.1329 30.5844 84.8734 33.1144C84.6511 35.6071 84.5214 37.9511 84.4844 40.1464C84.3731 44.574 84.8734 47.8108 85.9854 49.8572C87.1344 51.9036 89.1358 52.9082 91.9896 52.8709C93.4352 52.8337 94.6027 52.2013 95.4923 50.9735C96.3818 49.7458 97.0673 48.2201 97.5493 46.3971C98.0681 44.574 98.4204 42.6393 98.6056 40.5928C98.7909 38.5093 98.9206 36.6117 98.9949 34.9003C99.0319 33.1887 99.0319 31.533 98.9949 29.9331C98.9576 28.296 98.8464 26.7892 98.6611 25.4126C98.4759 24.036 98.2164 22.808 97.8829 21.7291C97.5863 20.613 97.2158 19.7201 96.7708 19.0503C97.8088 19.0131 98.6984 19.0317 99.4394 19.1062C100.181 19.1805 100.866 19.2736 101.496 19.3853C102.164 19.4596 102.85 19.5153 103.554 19.5527C104.258 19.5898 105.092 19.5153 106.055 19.3293C105.648 20.4828 105.277 21.6734 104.944 22.9012C104.61 24.1289 104.313 25.4683 104.054 26.9194C103.832 28.3706 103.646 29.9891 103.498 31.775C103.387 33.5235 103.331 35.5142 103.331 37.7466C103.368 39.979 103.48 42.0068 103.665 43.8299C103.887 45.6529 104.258 47.1969 104.777 48.462C105.333 49.6898 106.074 50.6013 107.001 51.1966C107.964 51.7548 109.206 51.885 110.726 51.5874C112.245 51.2526 113.431 50.4896 114.284 49.299C115.136 48.1084 115.748 46.639 116.118 44.8902C116.526 43.1415 116.748 41.1882 116.786 39.0303C116.86 36.8351 116.86 34.6027 116.786 32.3329C116.711 30.0262 116.582 28.0729 116.396 26.473C116.211 24.8359 115.915 23.4965 115.507 22.4547C115.136 21.4129 114.654 20.6316 114.061 20.1106C113.468 19.5527 112.745 19.1991 111.893 19.0503L112.06 17.8225C114.321 18.1947 116.656 18.3247 119.065 18.2133C121.474 18.0644 123.994 17.6365 126.626 16.9295L126.848 18.7155ZM126.848 54.601C127.701 54.3034 128.405 53.9129 128.961 53.429C129.517 52.9454 129.943 52.4618 130.24 51.9779C130.61 51.42 130.851 50.8433 130.962 50.248C131.778 46.4528 132.185 42.8438 132.185 39.4208C132.185 35.9607 131.926 33.0027 131.407 30.547C131.259 29.7657 130.981 29.0402 130.573 28.3706C130.24 27.8124 129.776 27.2916 129.183 26.8078C128.59 26.287 127.83 25.9522 126.904 25.8034L126.848 24.9104C127.589 24.9847 128.275 25.0407 128.905 25.0778C129.573 25.0778 130.147 25.0778 130.629 25.0778H132.185C132.63 25.115 133.075 25.1335 133.52 25.1335C133.927 25.1707 134.335 25.1893 134.743 25.1893C135.188 25.1893 135.614 25.2266 136.022 25.3009C135.91 26.6404 135.818 28.0172 135.744 29.4309C135.67 30.8075 135.614 32.0541 135.577 33.1701C135.503 34.4724 135.466 35.7373 135.466 36.9653C135.391 38.3419 135.336 39.8487 135.299 41.4858C135.262 43.0857 135.28 44.6111 135.354 46.0623C135.429 47.5131 135.558 48.7968 135.744 49.9132C135.929 50.9921 136.226 51.6991 136.633 52.0339C136.856 52.1827 137.152 52.3315 137.523 52.4803C137.819 52.6292 138.208 52.778 138.69 52.9268C139.209 53.0756 139.839 53.2245 140.58 53.3733L140.636 54.322C139.895 54.2848 139.172 54.2848 138.468 54.322C137.801 54.322 137.208 54.322 136.689 54.322C136.059 54.3591 135.466 54.3779 134.91 54.3779C134.131 54.4151 133.297 54.4894 132.408 54.601C131.667 54.6756 130.833 54.7684 129.906 54.8801C128.98 54.9918 128.09 55.1221 127.237 55.2709L126.848 54.601ZM132.575 21.1712C131.426 21.2455 130.536 20.985 129.906 20.3897C129.276 19.7572 128.924 19.0503 128.85 18.269C128.776 17.4877 128.98 16.7621 129.461 16.0923C129.98 15.3856 130.796 14.9577 131.908 14.8088C133.056 14.66 133.964 14.9017 134.632 15.5344C135.336 16.1668 135.744 16.8924 135.855 17.7108C135.966 18.4923 135.762 19.255 135.243 19.9992C134.724 20.7059 133.835 21.0967 132.575 21.1712ZM168.378 69C167.081 69 165.802 68.7955 164.542 68.3861C163.282 67.9768 162.189 67.2884 161.262 66.3211C160.335 65.391 159.65 64.1259 159.205 62.526C158.76 60.9634 158.705 59.0101 159.038 56.666C159.298 54.8801 159.502 53.1314 159.65 51.42C159.835 49.6712 159.891 48.0713 159.817 46.6202C159.742 45.1319 159.483 43.8299 159.038 42.7136C158.594 41.5601 157.871 40.6671 156.87 40.0347C155.944 39.4022 154.739 39.0303 153.256 38.9186C151.774 38.8069 149.976 39.0674 147.863 39.6999C147.938 41.2998 148.03 42.8067 148.141 44.2204C148.29 45.6344 148.456 46.8993 148.642 48.0156C148.753 49.1316 148.957 50.0991 149.253 50.9175C149.476 51.6245 149.791 52.257 150.199 52.8151C150.606 53.3733 151.125 53.5778 151.755 53.429L151.366 54.8244C150.625 54.5639 149.772 54.3779 148.809 54.2662C147.882 54.1546 146.881 54.136 145.806 54.2105C144.732 54.2848 143.62 54.4522 142.471 54.7127C141.359 54.9732 140.284 55.3638 139.246 55.8848L138.968 54.9358C139.524 54.5268 140.024 54.1546 140.469 53.8198C140.914 53.485 141.303 53.0571 141.637 52.5361C142.007 52.0153 142.322 51.3455 142.582 50.527C142.841 49.7084 143.064 48.6109 143.249 47.2343C143.434 45.8575 143.657 44.0716 143.916 41.8766C144.213 39.6442 144.472 37.2444 144.695 34.677C144.917 32.1098 145.065 29.4681 145.139 26.7521C145.213 24.036 145.139 21.506 144.917 19.1619C144.695 17.4132 144.361 15.832 143.916 14.4181C143.731 13.8228 143.49 13.2461 143.194 12.6879C142.934 12.0926 142.619 11.5718 142.248 11.1253C141.878 10.6417 141.451 10.251 140.97 9.95331C140.525 9.65566 140.024 9.48826 139.468 9.45111V8.61388C140.173 8.72556 140.97 8.85581 141.859 9.00463C142.786 9.11607 143.824 9.19061 144.973 9.22775C146.159 9.26514 147.474 9.20918 148.92 9.06035C150.402 8.87438 152.052 8.52077 153.868 8V9.11608C153.201 9.48826 152.589 9.87902 152.033 10.2881C151.477 10.6603 150.958 11.1996 150.477 11.9066C150.032 12.6136 149.643 13.5437 149.309 14.6972C148.975 15.8506 148.734 17.376 148.586 19.2736C148.401 21.0595 148.197 23.1245 147.975 25.4683C147.789 27.8124 147.697 30.2308 147.697 32.7237C147.697 33.6166 147.697 34.5281 147.697 35.4585C147.697 36.3514 147.734 37.2444 147.808 38.1373C149.587 37.5047 151.181 36.6862 152.589 35.6816C153.997 34.6398 155.183 33.5795 156.147 32.5005C157.111 31.3842 157.852 30.3053 158.371 29.2635C158.89 28.2217 159.149 27.3288 159.149 26.5847C159.075 26.0265 158.946 25.5243 158.76 25.0778C158.575 24.7056 158.297 24.3708 157.926 24.0732C157.556 23.7384 157.055 23.5524 156.425 23.515L156.592 22.1199C158.89 22.4175 161.095 22.5478 163.208 22.5104C165.321 22.4361 167.433 21.9339 169.546 21.0036L169.768 22.1199C169.212 22.3804 168.712 22.6406 168.267 22.9012C167.822 23.1245 167.396 23.4034 166.988 23.7384C166.618 24.0732 166.247 24.5197 165.877 25.0778C165.506 25.5986 165.098 26.287 164.653 27.1428C164.32 27.8496 163.875 28.6682 163.319 29.5983C162.763 30.5284 162.096 31.4588 161.318 32.3889C160.576 33.2818 159.705 34.1376 158.705 34.956C157.741 35.7373 156.685 36.37 155.536 36.8536C158.501 36.7791 160.817 37.5606 162.485 39.1977C164.153 40.7974 165.098 43.4577 165.321 47.1783C165.395 49.0759 165.228 50.9921 164.82 52.9268C164.413 54.8244 164.06 56.6103 163.764 58.2845C163.467 59.9959 163.356 61.5216 163.43 62.861C163.505 64.2376 164.06 65.3165 165.098 66.0978C166.099 66.8793 167.081 67.3443 168.045 67.4932C169.045 67.6791 169.972 67.6048 170.825 67.2698C171.677 66.9722 172.418 66.4514 173.048 65.7073C173.716 64.9631 174.234 64.0888 174.605 63.0841C174.939 62.0795 175.087 61.2051 175.05 60.4612C175.013 59.7542 174.846 59.1589 174.549 58.6753C174.253 58.2286 173.864 57.8938 173.382 57.6707C172.937 57.4473 172.455 57.3356 171.937 57.3356C170.899 57.3356 169.972 57.7264 169.157 58.5077C168.341 59.2892 167.896 60.3121 167.822 61.5773C167.785 62.0238 167.841 62.3957 167.989 62.6934C168.137 62.991 168.323 63.2144 168.545 63.3632C168.804 63.5492 169.064 63.6794 169.324 63.754C169.62 63.8282 169.898 63.8282 170.158 63.754C170.639 63.6794 171.121 63.4003 171.603 62.9167C172.122 62.4331 172.363 61.8564 172.326 61.1865C172.103 61.3354 171.825 61.4656 171.492 61.5773C171.158 61.7261 170.843 61.8004 170.547 61.8004C170.287 61.8004 170.046 61.7075 169.824 61.5216C169.639 61.3727 169.546 61.0751 169.546 60.6286C169.546 60.1076 169.731 59.6983 170.102 59.4006C170.51 59.1404 170.954 59.0101 171.436 59.0101C171.918 59.0101 172.363 59.1589 172.77 59.4566C173.178 59.7914 173.382 60.275 173.382 60.9075C173.419 62.1354 173.011 63.1587 172.159 63.9771C171.344 64.8329 170.38 65.2608 169.268 65.2608C168.452 65.2608 167.804 65.0189 167.322 64.5352C166.877 64.0887 166.562 63.512 166.377 62.805C166.229 62.1354 166.229 61.3913 166.377 60.5726C166.562 59.7542 166.896 58.9915 167.378 58.2845C167.859 57.6147 168.489 57.038 169.268 56.5544C170.083 56.1079 171.047 55.8848 172.159 55.8848C172.937 55.8848 173.586 56.0336 174.105 56.3312C174.624 56.6289 175.031 57.0008 175.328 57.4473C175.661 57.9309 175.902 58.4519 176.051 59.0101C176.199 59.5683 176.273 60.1262 176.273 60.6843C176.31 61.7633 176.162 62.7865 175.828 63.754C175.495 64.7583 174.994 65.6513 174.327 66.4328C173.66 67.2141 172.826 67.828 171.825 68.2744C170.825 68.7581 169.676 69 168.378 69ZM169.212 54.601C170.065 54.3034 170.769 53.9129 171.325 53.429C171.881 52.9454 172.307 52.4618 172.604 51.9779C172.974 51.42 173.215 50.8433 173.326 50.248C174.142 46.4528 174.549 42.8438 174.549 39.4208C174.549 35.9607 174.29 33.0027 173.771 30.547C173.623 29.7657 173.345 29.0402 172.937 28.3706C172.604 27.8124 172.14 27.2916 171.547 26.8078C170.954 26.287 170.195 25.9522 169.268 25.8034L169.212 24.9104C169.954 24.9847 170.639 25.0407 171.269 25.0778C171.937 25.0778 172.511 25.0778 172.993 25.0778H174.549C174.994 25.115 175.439 25.1335 175.884 25.1335C176.291 25.1707 176.699 25.1893 177.107 25.1893C177.552 25.1893 177.978 25.2266 178.386 25.3009C178.274 26.6404 178.182 28.0172 178.108 29.4309C178.034 30.8075 177.978 32.0541 177.941 33.1701C177.867 34.4724 177.83 35.7373 177.83 36.9653C177.756 38.3419 177.7 39.8487 177.663 41.4858C177.626 43.0857 177.644 44.6111 177.718 46.0623C177.793 47.5131 177.922 48.7968 178.108 49.9132C178.293 50.9921 178.589 51.6991 178.997 52.0339C179.22 52.1827 179.516 52.3315 179.887 52.4803C180.183 52.6292 180.572 52.778 181.054 52.9268C181.573 53.0756 182.203 53.2245 182.944 53.3733L183 54.322C182.259 54.2848 181.536 54.2848 180.832 54.322C180.165 54.322 179.572 54.322 179.053 54.322C178.423 54.3591 177.83 54.3779 177.274 54.3779C176.495 54.4151 175.661 54.4894 174.772 54.601C174.031 54.6756 173.197 54.7684 172.27 54.8801C171.344 54.9918 170.454 55.1221 169.602 55.2709L169.212 54.601ZM174.939 21.1712C173.79 21.2455 172.9 20.985 172.27 20.3897C171.64 19.7572 171.288 19.0503 171.214 18.269C171.14 17.4877 171.344 16.7621 171.825 16.0923C172.344 15.3856 173.16 14.9577 174.271 14.8088C175.42 14.66 176.329 14.9017 176.996 15.5344C177.7 16.1668 178.108 16.8924 178.219 17.7108C178.33 18.4923 178.126 19.255 177.607 19.9992C177.088 20.7059 176.199 21.0967 174.939 21.1712Z" fill="white"/>
<path d="M260.908 43.3197L259.145 48.6097L257.382 55.3104C257.382 55.3104 252.796 57.7792 252.444 56.0158C252.091 54.2525 254.207 53.8997 254.207 53.8997L254.912 50.3731L249.623 40.851L260.908 43.3197Z" fill="white"/>
<path d="M260.908 43.3197L259.145 48.6097L257.382 55.3104C257.382 55.3104 252.796 57.7792 252.444 56.0158C252.091 54.2525 254.207 53.8997 254.207 53.8997L254.912 50.3731L249.623 40.851L260.908 43.3197Z" fill="white"/>
<path d="M230.931 41.204L227.757 55.6635C227.757 55.6635 225.288 57.0742 223.525 56.3689C221.761 55.6635 224.583 53.9001 224.583 53.9001C224.583 53.9001 223.525 45.0835 218.235 44.0253C212.945 42.9674 230.931 41.204 230.931 41.204Z" fill="white"/>
<path d="M230.931 41.204L227.757 55.6635C227.757 55.6635 225.288 57.0742 223.525 56.3689C221.761 55.6635 224.583 53.9001 224.583 53.9001C224.583 53.9001 223.525 45.0835 218.235 44.0253C212.945 42.9674 230.931 41.204 230.931 41.204Z" fill="white"/>
<path d="M210.123 24.2759C210.123 24.2759 217.177 26.7446 223.525 25.3339C223.525 25.3339 235.869 23.5706 236.926 23.2178C237.984 22.8652 249.976 22.1599 256.322 23.2178C256.322 23.2178 273.957 9.46377 264.083 3.46839C264.083 3.46839 259.85 5.5844 258.792 4.17372C258.395 3.64472 258.594 2.96694 258.995 2.32634C259.451 1.63028 260.068 1.05553 260.796 0.651769C261.523 0.248005 262.338 0.0273719 263.169 0.00896097C266.854 -0.129013 273.458 1.19524 270.461 13.2444C269.607 16.5678 268.032 19.6629 265.851 22.3111C264.244 24.291 262.582 27.031 263.376 29.2132C264.788 33.0927 265.14 39.0881 265.14 39.0881L270.077 46.494C270.077 46.494 272.899 55.6635 272.899 56.0161C272.899 56.3689 269.061 57.1169 268.314 56.3689C267.608 55.6635 269.371 54.2528 269.371 54.2528C269.371 54.2528 267.961 51.4314 265.493 50.7261C263.023 50.0207 256.322 47.5521 255.264 46.494C254.207 45.436 231.636 39.0881 225.288 45.0835C221.726 48.4866 217.957 51.6667 214.003 54.6054C214.003 54.6054 212.239 57.0742 210.123 57.0742C208.007 57.0742 207.655 53.9001 210.123 53.5475C212.592 53.1947 216.119 44.7307 216.119 44.7307C216.119 44.7307 217.177 38.3827 211.887 37.3246C208.97 36.7415 207.233 36.694 206.261 36.769C205.873 36.8013 205.482 36.7551 205.112 36.633C204.742 36.5111 204.401 36.3158 204.108 36.0592C203.479 35.454 202.915 34.7841 202.426 34.0606C202.297 33.8769 202.214 33.665 202.184 33.4426C202.153 33.2202 202.177 32.9937 202.252 32.7822C202.722 31.5001 203.113 30.1904 203.423 28.8606C203.775 27.0973 206.597 25.6866 206.597 25.6866C206.597 25.6866 207.302 20.7492 208.36 22.1599C208.902 22.902 209.491 23.6087 210.123 24.2759Z" fill="white"/>
<path d="M210.123 24.2759C210.123 24.2759 217.177 26.7446 223.525 25.3339C223.525 25.3339 235.869 23.5706 236.926 23.2178C237.984 22.8652 249.976 22.1599 256.322 23.2178C256.322 23.2178 273.957 9.46377 264.083 3.46839C264.083 3.46839 259.85 5.5844 258.792 4.17372C258.395 3.64472 258.594 2.96694 258.995 2.32634C259.451 1.63028 260.068 1.05553 260.796 0.651769C261.523 0.248005 262.338 0.0273719 263.169 0.00896097C266.854 -0.129013 273.458 1.19524 270.461 13.2444C269.607 16.5678 268.032 19.6629 265.851 22.3111C264.244 24.291 262.582 27.031 263.376 29.2132C264.788 33.0927 265.14 39.0881 265.14 39.0881L270.077 46.494C270.077 46.494 272.899 55.6635 272.899 56.0161C272.899 56.3689 269.061 57.1169 268.314 56.3689C267.608 55.6635 269.371 54.2528 269.371 54.2528C269.371 54.2528 267.961 51.4314 265.493 50.7261C263.023 50.0207 256.322 47.5521 255.264 46.494C254.207 45.436 231.636 39.0881 225.288 45.0835C221.726 48.4866 217.957 51.6667 214.003 54.6054C214.003 54.6054 212.239 57.0742 210.123 57.0742C208.007 57.0742 207.655 53.9001 210.123 53.5475C212.592 53.1947 216.119 44.7307 216.119 44.7307C216.119 44.7307 217.177 38.3827 211.887 37.3246C208.97 36.7415 207.233 36.694 206.261 36.769C205.873 36.8013 205.482 36.7551 205.112 36.633C204.742 36.5111 204.401 36.3158 204.108 36.0592C203.479 35.454 202.915 34.7841 202.426 34.0606C202.297 33.8769 202.214 33.665 202.184 33.4426C202.153 33.2202 202.177 32.9937 202.252 32.7822C202.722 31.5001 203.113 30.1904 203.423 28.8606C203.775 27.0973 206.597 25.6866 206.597 25.6866C206.597 25.6866 207.302 20.7492 208.36 22.1599C208.902 22.902 209.491 23.6087 210.123 24.2759Z" fill="white"/>
</svg>
